<mxfile host="app.diagrams.net" agent="Mozilla/5.0 (Windows NT 10.0; Win64; x64) AppleWebKit/537.36 (KHTML, like Gecko) Chrome/134.0.0.0 Safari/537.36 Edg/134.0.0.0" version="26.2.4">
  <diagram name="Страница — 1" id="fYfMApOWmwJS4ZwKL0sr">
    <mxGraphModel dx="621" dy="951" grid="0" gridSize="10" guides="1" tooltips="1" connect="1" arrows="1" fold="1" page="0" pageScale="1" pageWidth="827" pageHeight="1169" math="0" shadow="0">
      <root>
        <mxCell id="0" />
        <mxCell id="1" parent="0" />
        <mxCell id="nmt1oNY3H4he96bewDz5-52" style="edgeStyle=none;curved=1;rounded=0;orthogonalLoop=1;jettySize=auto;html=1;entryX=0.5;entryY=0;entryDx=0;entryDy=0;fontSize=12;startSize=8;endSize=8;fillColor=#e1d5e7;strokeColor=#9673a6;" parent="1" source="nmt1oNY3H4he96bewDz5-1" target="nmt1oNY3H4he96bewDz5-3" edge="1">
          <mxGeometry relative="1" as="geometry" />
        </mxCell>
        <mxCell id="cZJ3TLeOLfc925Ybqt8N-4" value="11" style="edgeLabel;html=1;align=center;verticalAlign=middle;resizable=0;points=[];fontSize=12;" vertex="1" connectable="0" parent="nmt1oNY3H4he96bewDz5-52">
          <mxGeometry x="-0.0803" y="2" relative="1" as="geometry">
            <mxPoint y="1" as="offset" />
          </mxGeometry>
        </mxCell>
        <mxCell id="cZJ3TLeOLfc925Ybqt8N-1" style="edgeStyle=none;curved=1;rounded=0;orthogonalLoop=1;jettySize=auto;html=1;exitX=1;exitY=1;exitDx=0;exitDy=0;entryX=0.5;entryY=0;entryDx=0;entryDy=0;fontSize=12;startSize=8;endSize=8;fillColor=#e1d5e7;strokeColor=#9673a6;" edge="1" parent="1" source="nmt1oNY3H4he96bewDz5-1" target="nmt1oNY3H4he96bewDz5-5">
          <mxGeometry relative="1" as="geometry" />
        </mxCell>
        <mxCell id="cZJ3TLeOLfc925Ybqt8N-5" value="5" style="edgeLabel;html=1;align=center;verticalAlign=middle;resizable=0;points=[];fontSize=12;" vertex="1" connectable="0" parent="cZJ3TLeOLfc925Ybqt8N-1">
          <mxGeometry x="-0.1203" y="-3" relative="1" as="geometry">
            <mxPoint as="offset" />
          </mxGeometry>
        </mxCell>
        <mxCell id="nmt1oNY3H4he96bewDz5-1" value="1" style="ellipse;whiteSpace=wrap;html=1;aspect=fixed;fillColor=#e1d5e7;strokeColor=#9673a6;" parent="1" vertex="1">
          <mxGeometry x="379" y="495" width="80" height="80" as="geometry" />
        </mxCell>
        <mxCell id="nmt1oNY3H4he96bewDz5-51" style="edgeStyle=none;curved=1;rounded=0;orthogonalLoop=1;jettySize=auto;html=1;entryX=0;entryY=0.5;entryDx=0;entryDy=0;fontSize=12;startSize=8;endSize=8;fillColor=#e1d5e7;strokeColor=#9673a6;" parent="1" source="nmt1oNY3H4he96bewDz5-2" target="nmt1oNY3H4he96bewDz5-1" edge="1">
          <mxGeometry relative="1" as="geometry" />
        </mxCell>
        <mxCell id="cZJ3TLeOLfc925Ybqt8N-3" value="8" style="edgeLabel;html=1;align=center;verticalAlign=middle;resizable=0;points=[];fontSize=12;" vertex="1" connectable="0" parent="nmt1oNY3H4he96bewDz5-51">
          <mxGeometry x="-0.0741" relative="1" as="geometry">
            <mxPoint as="offset" />
          </mxGeometry>
        </mxCell>
        <mxCell id="nmt1oNY3H4he96bewDz5-2" value="0" style="ellipse;whiteSpace=wrap;html=1;aspect=fixed;fillColor=#e1d5e7;strokeColor=#9673a6;" parent="1" vertex="1">
          <mxGeometry x="191" y="495" width="80" height="80" as="geometry" />
        </mxCell>
        <mxCell id="nmt1oNY3H4he96bewDz5-53" style="edgeStyle=none;curved=1;rounded=0;orthogonalLoop=1;jettySize=auto;html=1;entryX=0;entryY=0;entryDx=0;entryDy=0;fontSize=12;startSize=8;endSize=8;fillColor=#e1d5e7;strokeColor=#9673a6;" parent="1" source="nmt1oNY3H4he96bewDz5-3" target="nmt1oNY3H4he96bewDz5-8" edge="1">
          <mxGeometry relative="1" as="geometry" />
        </mxCell>
        <mxCell id="cZJ3TLeOLfc925Ybqt8N-9" value="9" style="edgeLabel;html=1;align=center;verticalAlign=middle;resizable=0;points=[];fontSize=12;" vertex="1" connectable="0" parent="nmt1oNY3H4he96bewDz5-53">
          <mxGeometry x="-0.3052" y="2" relative="1" as="geometry">
            <mxPoint as="offset" />
          </mxGeometry>
        </mxCell>
        <mxCell id="cZJ3TLeOLfc925Ybqt8N-2" style="edgeStyle=none;curved=1;rounded=0;orthogonalLoop=1;jettySize=auto;html=1;entryX=1;entryY=0.5;entryDx=0;entryDy=0;fontSize=12;startSize=8;endSize=8;fillColor=#e1d5e7;strokeColor=#9673a6;" edge="1" parent="1" source="nmt1oNY3H4he96bewDz5-3" target="nmt1oNY3H4he96bewDz5-4">
          <mxGeometry relative="1" as="geometry" />
        </mxCell>
        <mxCell id="cZJ3TLeOLfc925Ybqt8N-6" value="9" style="edgeLabel;html=1;align=center;verticalAlign=middle;resizable=0;points=[];fontSize=12;" vertex="1" connectable="0" parent="cZJ3TLeOLfc925Ybqt8N-2">
          <mxGeometry x="-0.1787" y="-3" relative="1" as="geometry">
            <mxPoint as="offset" />
          </mxGeometry>
        </mxCell>
        <mxCell id="nmt1oNY3H4he96bewDz5-3" value="3" style="ellipse;whiteSpace=wrap;html=1;aspect=fixed;fillColor=#e1d5e7;strokeColor=#9673a6;" parent="1" vertex="1">
          <mxGeometry x="290" y="608" width="80" height="80" as="geometry" />
        </mxCell>
        <mxCell id="nmt1oNY3H4he96bewDz5-4" value="2" style="ellipse;whiteSpace=wrap;html=1;aspect=fixed;fillColor=#e1d5e7;strokeColor=#9673a6;" parent="1" vertex="1">
          <mxGeometry x="93" y="608" width="80" height="80" as="geometry" />
        </mxCell>
        <mxCell id="nmt1oNY3H4he96bewDz5-5" value="4" style="ellipse;whiteSpace=wrap;html=1;aspect=fixed;fillColor=#e1d5e7;strokeColor=#9673a6;" parent="1" vertex="1">
          <mxGeometry x="466" y="608" width="80" height="80" as="geometry" />
        </mxCell>
        <mxCell id="nmt1oNY3H4he96bewDz5-58" style="edgeStyle=none;curved=1;rounded=0;orthogonalLoop=1;jettySize=auto;html=1;fontSize=12;startSize=8;endSize=8;" parent="1" source="nmt1oNY3H4he96bewDz5-7" target="nmt1oNY3H4he96bewDz5-4" edge="1">
          <mxGeometry relative="1" as="geometry" />
        </mxCell>
        <mxCell id="cZJ3TLeOLfc925Ybqt8N-7" value="10" style="edgeLabel;html=1;align=center;verticalAlign=middle;resizable=0;points=[];fontSize=12;" vertex="1" connectable="0" parent="nmt1oNY3H4he96bewDz5-58">
          <mxGeometry x="-0.2839" y="3" relative="1" as="geometry">
            <mxPoint as="offset" />
          </mxGeometry>
        </mxCell>
        <mxCell id="nmt1oNY3H4he96bewDz5-7" value="5" style="ellipse;whiteSpace=wrap;html=1;aspect=fixed;fillColor=#e1d5e7;strokeColor=#9673a6;" parent="1" vertex="1">
          <mxGeometry x="191" y="741" width="80" height="80" as="geometry" />
        </mxCell>
        <mxCell id="nmt1oNY3H4he96bewDz5-54" style="edgeStyle=none;curved=1;rounded=0;orthogonalLoop=1;jettySize=auto;html=1;entryX=1;entryY=0.5;entryDx=0;entryDy=0;fontSize=12;startSize=8;endSize=8;fillColor=#e1d5e7;strokeColor=#9673a6;" parent="1" source="nmt1oNY3H4he96bewDz5-8" target="nmt1oNY3H4he96bewDz5-7" edge="1">
          <mxGeometry relative="1" as="geometry" />
        </mxCell>
        <mxCell id="cZJ3TLeOLfc925Ybqt8N-8" value="6" style="edgeLabel;html=1;align=center;verticalAlign=middle;resizable=0;points=[];fontSize=12;" vertex="1" connectable="0" parent="nmt1oNY3H4he96bewDz5-54">
          <mxGeometry x="-0.0847" y="2" relative="1" as="geometry">
            <mxPoint as="offset" />
          </mxGeometry>
        </mxCell>
        <mxCell id="nmt1oNY3H4he96bewDz5-8" value="6" style="ellipse;whiteSpace=wrap;html=1;aspect=fixed;fillColor=#e1d5e7;strokeColor=#9673a6;" parent="1" vertex="1">
          <mxGeometry x="379" y="741" width="80" height="80" as="geometry" />
        </mxCell>
        <mxCell id="nmt1oNY3H4he96bewDz5-24" value="1" style="ellipse;whiteSpace=wrap;html=1;aspect=fixed;" parent="1" vertex="1">
          <mxGeometry x="392" y="74" width="80" height="80" as="geometry" />
        </mxCell>
        <mxCell id="nmt1oNY3H4he96bewDz5-25" style="edgeStyle=none;curved=1;rounded=0;orthogonalLoop=1;jettySize=auto;html=1;entryX=0;entryY=0.5;entryDx=0;entryDy=0;fontSize=12;startSize=8;endSize=8;" parent="1" source="nmt1oNY3H4he96bewDz5-27" target="nmt1oNY3H4he96bewDz5-24" edge="1">
          <mxGeometry relative="1" as="geometry" />
        </mxCell>
        <mxCell id="nmt1oNY3H4he96bewDz5-26" value="0" style="edgeLabel;html=1;align=center;verticalAlign=middle;resizable=0;points=[];fontSize=12;" parent="nmt1oNY3H4he96bewDz5-25" vertex="1" connectable="0">
          <mxGeometry x="0.0885" y="-1" relative="1" as="geometry">
            <mxPoint as="offset" />
          </mxGeometry>
        </mxCell>
        <mxCell id="nmt1oNY3H4he96bewDz5-27" value="0" style="ellipse;whiteSpace=wrap;html=1;aspect=fixed;" parent="1" vertex="1">
          <mxGeometry x="204" y="74" width="80" height="80" as="geometry" />
        </mxCell>
        <mxCell id="nmt1oNY3H4he96bewDz5-30" value="3" style="ellipse;whiteSpace=wrap;html=1;aspect=fixed;" parent="1" vertex="1">
          <mxGeometry x="303" y="187" width="80" height="80" as="geometry" />
        </mxCell>
        <mxCell id="nmt1oNY3H4he96bewDz5-31" value="2" style="ellipse;whiteSpace=wrap;html=1;aspect=fixed;" parent="1" vertex="1">
          <mxGeometry x="106" y="187" width="80" height="80" as="geometry" />
        </mxCell>
        <mxCell id="nmt1oNY3H4he96bewDz5-32" value="4" style="ellipse;whiteSpace=wrap;html=1;aspect=fixed;" parent="1" vertex="1">
          <mxGeometry x="479" y="187" width="80" height="80" as="geometry" />
        </mxCell>
        <mxCell id="nmt1oNY3H4he96bewDz5-33" value="5" style="ellipse;whiteSpace=wrap;html=1;aspect=fixed;" parent="1" vertex="1">
          <mxGeometry x="204" y="320" width="80" height="80" as="geometry" />
        </mxCell>
        <mxCell id="nmt1oNY3H4he96bewDz5-34" style="edgeStyle=none;curved=1;rounded=0;orthogonalLoop=1;jettySize=auto;html=1;entryX=1;entryY=0.5;entryDx=0;entryDy=0;fontSize=12;startSize=8;endSize=8;" parent="1" source="nmt1oNY3H4he96bewDz5-36" target="nmt1oNY3H4he96bewDz5-33" edge="1">
          <mxGeometry relative="1" as="geometry" />
        </mxCell>
        <mxCell id="nmt1oNY3H4he96bewDz5-35" value="7" style="edgeLabel;html=1;align=center;verticalAlign=middle;resizable=0;points=[];fontSize=12;" parent="nmt1oNY3H4he96bewDz5-34" vertex="1" connectable="0">
          <mxGeometry x="-0.1708" y="-2" relative="1" as="geometry">
            <mxPoint as="offset" />
          </mxGeometry>
        </mxCell>
        <mxCell id="nmt1oNY3H4he96bewDz5-36" value="6" style="ellipse;whiteSpace=wrap;html=1;aspect=fixed;" parent="1" vertex="1">
          <mxGeometry x="392" y="320" width="80" height="80" as="geometry" />
        </mxCell>
        <mxCell id="nmt1oNY3H4he96bewDz5-39" value="" style="endArrow=classic;html=1;rounded=0;fontSize=12;startSize=8;endSize=8;curved=1;exitX=0;exitY=1;exitDx=0;exitDy=0;entryX=0.5;entryY=0;entryDx=0;entryDy=0;" parent="1" source="nmt1oNY3H4he96bewDz5-24" target="nmt1oNY3H4he96bewDz5-30" edge="1">
          <mxGeometry width="50" height="50" relative="1" as="geometry">
            <mxPoint x="312" y="271" as="sourcePoint" />
            <mxPoint x="362" y="221" as="targetPoint" />
          </mxGeometry>
        </mxCell>
        <mxCell id="nmt1oNY3H4he96bewDz5-40" value="1" style="edgeLabel;html=1;align=center;verticalAlign=middle;resizable=0;points=[];fontSize=12;" parent="nmt1oNY3H4he96bewDz5-39" vertex="1" connectable="0">
          <mxGeometry x="-0.1108" y="-1" relative="1" as="geometry">
            <mxPoint as="offset" />
          </mxGeometry>
        </mxCell>
        <mxCell id="nmt1oNY3H4he96bewDz5-41" value="" style="endArrow=classic;html=1;rounded=0;fontSize=12;startSize=8;endSize=8;curved=1;exitX=1;exitY=1;exitDx=0;exitDy=0;entryX=0.5;entryY=0;entryDx=0;entryDy=0;" parent="1" source="nmt1oNY3H4he96bewDz5-24" target="nmt1oNY3H4he96bewDz5-32" edge="1">
          <mxGeometry width="50" height="50" relative="1" as="geometry">
            <mxPoint x="312" y="271" as="sourcePoint" />
            <mxPoint x="362" y="221" as="targetPoint" />
          </mxGeometry>
        </mxCell>
        <mxCell id="nmt1oNY3H4he96bewDz5-42" value="2" style="edgeLabel;html=1;align=center;verticalAlign=middle;resizable=0;points=[];fontSize=12;" parent="nmt1oNY3H4he96bewDz5-41" vertex="1" connectable="0">
          <mxGeometry x="-0.0403" y="2" relative="1" as="geometry">
            <mxPoint as="offset" />
          </mxGeometry>
        </mxCell>
        <mxCell id="nmt1oNY3H4he96bewDz5-43" value="" style="endArrow=classic;html=1;rounded=0;fontSize=12;startSize=8;endSize=8;curved=1;exitX=1;exitY=1;exitDx=0;exitDy=0;" parent="1" source="nmt1oNY3H4he96bewDz5-30" target="nmt1oNY3H4he96bewDz5-36" edge="1">
          <mxGeometry width="50" height="50" relative="1" as="geometry">
            <mxPoint x="312" y="271" as="sourcePoint" />
            <mxPoint x="362" y="221" as="targetPoint" />
          </mxGeometry>
        </mxCell>
        <mxCell id="nmt1oNY3H4he96bewDz5-44" value="4" style="edgeLabel;html=1;align=center;verticalAlign=middle;resizable=0;points=[];fontSize=12;" parent="nmt1oNY3H4he96bewDz5-43" vertex="1" connectable="0">
          <mxGeometry x="0.1068" y="-1" relative="1" as="geometry">
            <mxPoint as="offset" />
          </mxGeometry>
        </mxCell>
        <mxCell id="nmt1oNY3H4he96bewDz5-49" value="" style="endArrow=classic;html=1;rounded=0;fontSize=12;startSize=8;endSize=8;curved=1;exitX=0;exitY=0;exitDx=0;exitDy=0;entryX=1;entryY=1;entryDx=0;entryDy=0;" parent="1" source="nmt1oNY3H4he96bewDz5-33" target="nmt1oNY3H4he96bewDz5-31" edge="1">
          <mxGeometry width="50" height="50" relative="1" as="geometry">
            <mxPoint x="190" y="850" as="sourcePoint" />
            <mxPoint x="148" y="773" as="targetPoint" />
          </mxGeometry>
        </mxCell>
        <mxCell id="nmt1oNY3H4he96bewDz5-50" value="6" style="edgeLabel;html=1;align=center;verticalAlign=middle;resizable=0;points=[];fontSize=12;" parent="nmt1oNY3H4he96bewDz5-49" vertex="1" connectable="0">
          <mxGeometry x="-0.1257" y="2" relative="1" as="geometry">
            <mxPoint as="offset" />
          </mxGeometry>
        </mxCell>
        <mxCell id="nmt1oNY3H4he96bewDz5-57" style="edgeStyle=none;curved=1;rounded=0;orthogonalLoop=1;jettySize=auto;html=1;exitX=1;exitY=0;exitDx=0;exitDy=0;entryX=0.349;entryY=0.961;entryDx=0;entryDy=0;entryPerimeter=0;fontSize=12;startSize=8;endSize=8;" parent="1" source="nmt1oNY3H4he96bewDz5-8" target="nmt1oNY3H4he96bewDz5-5" edge="1">
          <mxGeometry relative="1" as="geometry" />
        </mxCell>
        <mxCell id="cZJ3TLeOLfc925Ybqt8N-10" value="2" style="edgeLabel;html=1;align=center;verticalAlign=middle;resizable=0;points=[];fontSize=12;" vertex="1" connectable="0" parent="nmt1oNY3H4he96bewDz5-57">
          <mxGeometry x="-0.1152" y="-1" relative="1" as="geometry">
            <mxPoint as="offset" />
          </mxGeometry>
        </mxCell>
        <mxCell id="cZJ3TLeOLfc925Ybqt8N-80" style="edgeStyle=none;curved=1;rounded=0;orthogonalLoop=1;jettySize=auto;html=1;exitX=0;exitY=1;exitDx=0;exitDy=0;fontSize=12;startSize=8;endSize=8;" edge="1" parent="1" source="cZJ3TLeOLfc925Ybqt8N-39" target="cZJ3TLeOLfc925Ybqt8N-47">
          <mxGeometry relative="1" as="geometry" />
        </mxCell>
        <mxCell id="cZJ3TLeOLfc925Ybqt8N-81" value="11" style="edgeLabel;html=1;align=center;verticalAlign=middle;resizable=0;points=[];fontSize=12;" vertex="1" connectable="0" parent="cZJ3TLeOLfc925Ybqt8N-80">
          <mxGeometry x="0.0087" y="-5" relative="1" as="geometry">
            <mxPoint x="1" as="offset" />
          </mxGeometry>
        </mxCell>
        <mxCell id="cZJ3TLeOLfc925Ybqt8N-39" value="1" style="ellipse;whiteSpace=wrap;html=1;aspect=fixed;fillColor=#f5f5f5;strokeColor=#666666;fontColor=#333333;" vertex="1" parent="1">
          <mxGeometry x="392" y="916" width="80" height="80" as="geometry" />
        </mxCell>
        <mxCell id="cZJ3TLeOLfc925Ybqt8N-74" style="edgeStyle=none;curved=1;rounded=0;orthogonalLoop=1;jettySize=auto;html=1;entryX=0;entryY=0.5;entryDx=0;entryDy=0;fontSize=12;startSize=8;endSize=8;" edge="1" parent="1" source="cZJ3TLeOLfc925Ybqt8N-42" target="cZJ3TLeOLfc925Ybqt8N-39">
          <mxGeometry relative="1" as="geometry" />
        </mxCell>
        <mxCell id="cZJ3TLeOLfc925Ybqt8N-75" value="8" style="edgeLabel;html=1;align=center;verticalAlign=middle;resizable=0;points=[];fontSize=12;" vertex="1" connectable="0" parent="cZJ3TLeOLfc925Ybqt8N-74">
          <mxGeometry x="0.003" y="1" relative="1" as="geometry">
            <mxPoint as="offset" />
          </mxGeometry>
        </mxCell>
        <mxCell id="cZJ3TLeOLfc925Ybqt8N-42" value="0" style="ellipse;whiteSpace=wrap;html=1;aspect=fixed;fillColor=#f5f5f5;strokeColor=#666666;fontColor=#333333;" vertex="1" parent="1">
          <mxGeometry x="204" y="916" width="80" height="80" as="geometry" />
        </mxCell>
        <mxCell id="cZJ3TLeOLfc925Ybqt8N-76" style="edgeStyle=none;curved=1;rounded=0;orthogonalLoop=1;jettySize=auto;html=1;fontSize=12;startSize=8;endSize=8;" edge="1" parent="1" source="cZJ3TLeOLfc925Ybqt8N-47" target="cZJ3TLeOLfc925Ybqt8N-48">
          <mxGeometry relative="1" as="geometry" />
        </mxCell>
        <mxCell id="cZJ3TLeOLfc925Ybqt8N-77" value="9" style="edgeLabel;html=1;align=center;verticalAlign=middle;resizable=0;points=[];fontSize=12;" vertex="1" connectable="0" parent="cZJ3TLeOLfc925Ybqt8N-76">
          <mxGeometry x="-0.0382" y="6" relative="1" as="geometry">
            <mxPoint x="-1" as="offset" />
          </mxGeometry>
        </mxCell>
        <mxCell id="cZJ3TLeOLfc925Ybqt8N-78" style="edgeStyle=none;curved=1;rounded=0;orthogonalLoop=1;jettySize=auto;html=1;exitX=1;exitY=1;exitDx=0;exitDy=0;fontSize=12;startSize=8;endSize=8;" edge="1" parent="1" source="cZJ3TLeOLfc925Ybqt8N-47" target="cZJ3TLeOLfc925Ybqt8N-55">
          <mxGeometry relative="1" as="geometry" />
        </mxCell>
        <mxCell id="cZJ3TLeOLfc925Ybqt8N-79" value="9" style="edgeLabel;html=1;align=center;verticalAlign=middle;resizable=0;points=[];fontSize=12;" vertex="1" connectable="0" parent="cZJ3TLeOLfc925Ybqt8N-78">
          <mxGeometry x="-0.108" y="-2" relative="1" as="geometry">
            <mxPoint x="1" as="offset" />
          </mxGeometry>
        </mxCell>
        <mxCell id="cZJ3TLeOLfc925Ybqt8N-47" value="3" style="ellipse;whiteSpace=wrap;html=1;aspect=fixed;fillColor=#f5f5f5;strokeColor=#666666;fontColor=#333333;" vertex="1" parent="1">
          <mxGeometry x="303" y="1029" width="80" height="80" as="geometry" />
        </mxCell>
        <mxCell id="cZJ3TLeOLfc925Ybqt8N-48" value="2" style="ellipse;whiteSpace=wrap;html=1;aspect=fixed;fillColor=#f5f5f5;strokeColor=#666666;fontColor=#333333;" vertex="1" parent="1">
          <mxGeometry x="106" y="1029" width="80" height="80" as="geometry" />
        </mxCell>
        <mxCell id="cZJ3TLeOLfc925Ybqt8N-49" value="4" style="ellipse;whiteSpace=wrap;html=1;aspect=fixed;fillColor=#f5f5f5;strokeColor=#666666;fontColor=#333333;" vertex="1" parent="1">
          <mxGeometry x="479" y="1029" width="80" height="80" as="geometry" />
        </mxCell>
        <mxCell id="cZJ3TLeOLfc925Ybqt8N-52" value="5" style="ellipse;whiteSpace=wrap;html=1;aspect=fixed;fillColor=#f5f5f5;strokeColor=#666666;fontColor=#333333;" vertex="1" parent="1">
          <mxGeometry x="204" y="1162" width="80" height="80" as="geometry" />
        </mxCell>
        <mxCell id="cZJ3TLeOLfc925Ybqt8N-58" style="edgeStyle=none;curved=1;rounded=0;orthogonalLoop=1;jettySize=auto;html=1;exitX=1;exitY=0;exitDx=0;exitDy=0;entryX=0.5;entryY=1;entryDx=0;entryDy=0;fontSize=12;startSize=8;endSize=8;" edge="1" parent="1" source="cZJ3TLeOLfc925Ybqt8N-55" target="cZJ3TLeOLfc925Ybqt8N-49">
          <mxGeometry relative="1" as="geometry" />
        </mxCell>
        <mxCell id="cZJ3TLeOLfc925Ybqt8N-59" value="2" style="edgeLabel;html=1;align=center;verticalAlign=middle;resizable=0;points=[];fontSize=12;" vertex="1" connectable="0" parent="cZJ3TLeOLfc925Ybqt8N-58">
          <mxGeometry x="-0.1504" y="2" relative="1" as="geometry">
            <mxPoint as="offset" />
          </mxGeometry>
        </mxCell>
        <mxCell id="cZJ3TLeOLfc925Ybqt8N-72" style="edgeStyle=none;curved=1;rounded=0;orthogonalLoop=1;jettySize=auto;html=1;fontSize=12;startSize=8;endSize=8;" edge="1" parent="1" source="cZJ3TLeOLfc925Ybqt8N-55" target="cZJ3TLeOLfc925Ybqt8N-52">
          <mxGeometry relative="1" as="geometry" />
        </mxCell>
        <mxCell id="cZJ3TLeOLfc925Ybqt8N-73" value="6" style="edgeLabel;html=1;align=center;verticalAlign=middle;resizable=0;points=[];fontSize=12;" vertex="1" connectable="0" parent="cZJ3TLeOLfc925Ybqt8N-72">
          <mxGeometry x="-0.003" relative="1" as="geometry">
            <mxPoint as="offset" />
          </mxGeometry>
        </mxCell>
        <mxCell id="cZJ3TLeOLfc925Ybqt8N-55" value="6" style="ellipse;whiteSpace=wrap;html=1;aspect=fixed;fillColor=#f5f5f5;strokeColor=#666666;fontColor=#333333;" vertex="1" parent="1">
          <mxGeometry x="392" y="1162" width="80" height="80" as="geometry" />
        </mxCell>
      </root>
    </mxGraphModel>
  </diagram>
</mxfile>
